<?xml version="1.0" standalone="no"?>
<!DOCTYPE svg PUBLIC "-//W3C//DTD SVG 20010904//EN"
 "http://www.w3.org/TR/2001/REC-SVG-20010904/DTD/svg10.dtd">
<svg version="1.0" xmlns="http://www.w3.org/2000/svg"
 width="1024.000000pt" height="1024.000000pt" viewBox="0 0 1024.000000 1024.000000"
 preserveAspectRatio="xMidYMid meet">
<metadata>
Created by potrace 1.14, written by Peter Selinger 2001-2017
</metadata>
<g transform="translate(0.000000,1024.000000) scale(0.100000,-0.100000)"
fill="#000000" stroke="none">
<path d="M1515 10229 c-53 -15 -109 -51 -152 -98 -48 -51 -69 -108 -103 -266
-12 -55 -24 -108 -26 -117 -4 -17 -7 -31 -19 -88 -8 -39 -14 -61 -26 -110 -6
-25 -13 -56 -15 -70 -7 -37 -11 -56 -33 -155 -35 -152 -72 -319 -77 -343 -2
-13 -14 -60 -25 -105 -11 -45 -22 -98 -25 -117 -2 -19 -7 -43 -10 -52 -3 -9
-7 -25 -9 -35 -5 -26 -30 -137 -65 -293 -17 -74 -33 -148 -36 -164 -2 -16 -7
-33 -10 -38 -3 -5 -8 -23 -10 -41 -2 -18 -15 -79 -28 -137 -13 -58 -22 -108
-19 -112 2 -5 0 -8 -4 -8 -5 0 -9 -8 -10 -17 -2 -16 -88 -414 -99 -453 -9 -33
-35 -157 -40 -190 -3 -19 -8 -38 -10 -42 -24 -39 -24 -518 0 -588 3 -8 7 -31
10 -50 3 -19 15 -69 26 -110 12 -41 23 -82 24 -90 2 -8 8 -26 14 -40 5 -14 20
-50 32 -80 31 -78 71 -159 81 -166 5 -3 7 -9 4 -14 -3 -4 2 -13 10 -20 8 -7
15 -16 15 -21 0 -17 136 -213 185 -265 121 -131 202 -204 322 -290 102 -74
329 -193 405 -213 4 -1 39 -13 78 -27 38 -13 87 -27 107 -30 21 -3 43 -9 48
-12 6 -4 17 -7 25 -8 18 -3 87 -13 115 -18 11 -2 33 -4 49 -5 16 0 27 -3 24
-7 -3 -3 -2 -21 2 -40 4 -19 4 -36 0 -39 -4 -2 -4 -23 0 -45 4 -22 4 -43 0
-45 -4 -3 -4 -21 0 -40 4 -19 4 -37 0 -40 -5 -3 -5 -18 -1 -33 4 -15 6 -36 5
-47 -1 -11 -3 -32 -3 -48 -1 -15 -1 -39 -2 -55 0 -15 0 -34 0 -42 1 -8 1 -26
0 -40 0 -14 0 -32 0 -40 2 -26 1 -54 -3 -75 -1 -11 0 -34 4 -51 4 -18 4 -38 0
-44 -4 -7 -4 -26 0 -41 5 -16 5 -31 1 -34 -5 -2 -5 -23 -1 -45 4 -22 4 -40 0
-40 -4 0 -4 -18 0 -40 4 -22 4 -40 0 -40 -4 0 -4 -15 0 -34 4 -19 4 -39 0 -46
-4 -7 -4 -27 0 -46 4 -19 4 -34 0 -34 -4 0 -4 -18 0 -40 4 -22 4 -40 0 -40 -4
0 -5 -15 -1 -32 4 -18 6 -42 5 -53 -1 -11 -3 -32 -3 -48 -1 -15 -1 -39 -2 -55
0 -15 0 -34 0 -42 1 -8 1 -26 0 -40 0 -14 0 -32 0 -40 2 -19 0 -59 -3 -85 -1
-11 1 -32 5 -47 4 -15 4 -30 -1 -33 -4 -3 -4 -21 0 -40 4 -19 4 -37 0 -40 -4
-2 -4 -23 0 -45 4 -22 4 -43 0 -45 -4 -3 -4 -21 0 -40 4 -19 4 -35 0 -35 -4 0
-4 -16 0 -35 4 -19 4 -37 0 -40 -4 -2 -4 -23 0 -45 4 -22 4 -43 0 -45 -4 -3
-4 -21 0 -40 4 -19 4 -37 0 -40 -5 -3 -5 -18 -1 -33 4 -15 6 -36 5 -47 -1 -11
-3 -32 -3 -48 -1 -15 -1 -39 -2 -55 0 -15 0 -34 0 -42 1 -8 1 -26 0 -40 0 -14
0 -32 0 -40 2 -18 0 -58 -3 -85 -1 -11 1 -35 5 -52 4 -18 3 -33 -1 -33 -4 0
-4 -18 0 -40 4 -22 4 -40 0 -40 -4 0 -4 -15 0 -34 4 -19 4 -39 0 -46 -4 -7 -4
-27 0 -46 4 -19 5 -34 1 -34 -7 0 -5 -194 2 -213 2 -7 1 -21 -3 -32 -4 -11 -4
-32 1 -47 4 -15 4 -30 -1 -33 -4 -3 -4 -21 0 -40 4 -19 4 -35 0 -35 -4 0 -4
-18 0 -40 4 -22 4 -40 0 -40 -4 0 -4 -15 0 -34 4 -19 4 -39 0 -46 -4 -7 -4
-27 0 -46 4 -19 5 -34 1 -34 -7 0 -5 -194 2 -213 2 -7 1 -21 -3 -32 -4 -11 -4
-32 1 -47 4 -15 4 -30 -1 -33 -4 -3 -4 -21 0 -40 4 -19 4 -35 0 -35 -4 0 -4
-18 0 -40 4 -22 4 -40 0 -40 -4 0 -4 -15 0 -34 4 -19 4 -39 0 -46 -4 -7 -4
-27 0 -46 4 -19 5 -34 1 -34 -3 0 -5 -42 -4 -92 3 -100 3 -144 2 -168 -1 -22
10 -172 14 -190 2 -8 9 -33 15 -55 6 -22 12 -44 12 -50 1 -5 8 -17 15 -25 7
-8 14 -18 14 -23 0 -14 45 -87 53 -87 4 0 8 -6 8 -12 0 -18 94 -108 157 -152
29 -20 55 -36 57 -36 2 0 21 -8 42 -17 22 -9 42 -18 47 -19 4 -1 8 -2 10 -4 1
-1 9 -3 17 -5 8 -2 29 -6 45 -10 104 -25 300 -8 370 32 17 9 30 15 30 13 0 -3
27 10 60 29 78 44 192 161 230 236 17 33 33 61 38 63 4 2 7 11 7 20 0 9 7 36
15 59 8 23 17 70 20 104 3 34 7 64 9 66 2 2 0 20 -4 39 -4 19 -4 36 0 39 4 2
4 23 0 45 -4 22 -4 43 0 45 4 3 4 21 0 40 -4 19 -4 37 0 40 5 3 5 18 1 33 -4
15 -6 36 -5 47 1 11 3 32 3 47 1 16 1 40 2 55 0 16 0 35 0 43 -1 8 -1 26 0 40
0 14 0 32 0 40 -1 8 -1 26 0 40 0 14 0 32 0 40 -1 8 -1 26 0 40 0 14 0 32 0
40 -1 8 -1 26 0 40 0 14 0 32 0 40 -1 8 -1 26 0 40 0 14 0 32 0 40 -2 19 0 59
3 85 1 11 -1 32 -5 47 -4 15 -4 30 1 33 4 3 4 21 0 40 -4 19 -4 37 0 40 4 2 4
23 0 45 -4 22 -4 43 0 45 4 3 4 21 0 40 -4 19 -4 35 0 35 4 0 4 16 0 35 -4 19
-4 37 0 40 4 2 4 23 0 45 -4 22 -4 43 0 45 4 3 4 21 0 40 -4 19 -4 37 0 40 5
3 5 18 1 33 -4 15 -6 36 -5 47 1 11 3 32 3 48 1 15 1 39 2 55 0 15 0 34 0 42
-1 8 -1 26 0 40 0 14 0 32 0 40 -2 26 -1 54 3 75 1 11 0 34 -4 51 -4 18 -4 38
0 44 4 7 4 26 0 41 -5 16 -5 31 -1 34 5 2 5 23 1 45 -4 22 -4 40 0 40 4 0 4
18 0 40 -4 22 -4 40 0 40 4 0 4 15 0 34 -4 19 -4 39 0 46 4 7 4 27 0 46 -4 19
-4 34 0 34 4 0 4 18 0 40 -4 22 -4 40 0 40 4 0 4 16 0 35 -4 19 -4 37 0 40 4
3 4 20 0 39 -4 19 -4 40 0 46 4 7 4 26 0 41 -5 16 -5 31 -1 34 5 2 5 23 1 45
-4 22 -4 40 0 40 4 0 4 18 0 40 -4 22 -4 40 0 40 4 0 4 15 0 34 -4 19 -4 39 0
46 4 7 4 27 0 46 -4 19 -4 34 0 34 4 0 4 18 0 40 -4 22 -4 40 0 40 4 0 4 15 0
34 -4 19 -4 39 0 46 4 7 4 27 0 46 -4 19 -4 34 0 34 4 0 4 18 0 40 -4 22 -4
40 0 40 4 0 4 15 0 34 -4 19 -4 39 0 46 4 7 4 27 0 46 -4 19 -5 34 -1 34 3 0
5 42 4 92 -2 51 -3 109 -3 128 0 19 0 46 -1 60 -1 31 -1 56 0 93 2 62 3 83 2
97 -1 8 -1 26 0 40 0 14 0 32 0 40 -2 19 0 59 3 85 1 11 -1 32 -5 47 -4 15 -4
30 1 33 4 3 4 21 0 40 -4 19 -4 37 0 40 4 2 4 23 0 45 -4 22 -4 43 0 45 4 3 4
21 0 41 -9 41 -13 39 85 53 138 21 135 20 290 67 77 24 181 64 235 93 8 4 44
23 80 42 36 18 67 36 70 39 3 3 29 21 58 39 30 19 59 39 65 45 7 6 29 24 50
39 20 16 48 39 62 53 13 13 26 24 29 24 9 0 134 134 187 200 59 73 141 197
187 282 68 126 162 396 165 476 0 6 3 12 6 12 3 0 6 10 7 23 1 26 14 139 20
182 6 41 6 34 1 185 -6 176 -14 220 -123 700 -8 36 -17 76 -20 90 -2 14 -7 31
-10 39 -2 8 -7 30 -10 50 -3 20 -7 43 -10 51 -3 8 -8 25 -10 38 -5 30 -20 98
-39 177 -2 11 -14 63 -25 115 -12 52 -28 124 -36 160 -8 36 -17 76 -20 90 -2
14 -7 32 -10 40 -3 8 -7 27 -9 41 -2 14 -13 66 -24 115 -11 49 -34 152 -51
229 -17 77 -38 169 -46 205 -8 36 -17 76 -20 90 -17 83 -43 198 -90 400 -14
63 -27 124 -29 135 -1 11 -5 29 -8 40 -3 11 -9 32 -12 48 -14 71 -17 85 -27
122 -6 22 -12 54 -15 70 -8 49 -45 117 -91 162 -58 58 -110 81 -203 90 -160
15 -317 -115 -334 -277 -4 -30 -8 -61 -10 -67 -3 -7 0 -13 5 -13 5 0 5 -13 0
-30 -5 -17 -5 -30 0 -30 5 0 5 -13 0 -30 -5 -17 -5 -30 0 -30 5 0 5 -13 0 -30
-5 -17 -5 -30 0 -30 5 0 5 -13 0 -30 -5 -17 -5 -30 0 -30 5 0 5 -13 0 -30 -5
-17 -5 -30 0 -30 5 0 5 -13 0 -30 -5 -17 -5 -30 0 -30 5 0 5 -13 0 -30 -5 -17
-5 -30 0 -30 5 0 5 -13 0 -30 -5 -17 -5 -30 0 -30 5 0 5 -13 0 -30 -5 -17 -5
-30 0 -30 5 0 5 -13 0 -30 -5 -17 -5 -30 0 -30 5 0 5 -13 0 -30 -5 -17 -5 -30
0 -30 5 0 5 -13 0 -30 -5 -16 -6 -30 -2 -30 8 0 7 -68 -1 -76 -3 -3 -2 -17 3
-30 6 -14 6 -24 0 -24 -5 0 -5 -12 0 -30 5 -17 5 -30 0 -30 -5 0 -5 -13 0 -30
5 -17 5 -30 0 -30 -5 0 -5 -13 0 -30 5 -17 5 -30 0 -30 -5 0 -5 -13 0 -30 5
-17 5 -30 0 -30 -5 0 -5 -13 0 -30 5 -17 5 -30 0 -30 -5 0 -5 -13 0 -30 5 -17
5 -30 0 -30 -5 0 -5 -13 0 -30 5 -17 5 -30 0 -30 -5 0 -5 -13 0 -30 5 -17 5
-30 0 -30 -5 0 -5 -13 0 -30 5 -17 5 -30 0 -30 -5 0 -5 -13 0 -30 5 -17 5 -30
0 -30 -5 0 -5 -13 0 -30 5 -17 5 -30 0 -30 -5 0 -5 -13 0 -30 5 -17 5 -30 0
-30 -5 0 -5 -13 0 -30 5 -17 5 -30 0 -30 -5 0 -5 -13 0 -30 5 -17 5 -30 0 -30
-5 0 -5 -13 0 -30 5 -17 5 -30 0 -30 -5 0 -5 -13 0 -30 5 -17 5 -30 0 -30 -5
0 -5 -13 0 -30 5 -17 5 -30 0 -30 -5 0 -5 -13 0 -30 5 -17 5 -30 0 -30 -5 0
-5 -13 0 -30 5 -17 5 -30 0 -30 -5 0 -5 -12 -1 -28 5 -15 5 -37 0 -49 -5 -13
-4 -25 1 -28 6 -4 7 -13 1 -24 -5 -9 -6 -22 -3 -28 9 -14 7 -77 -2 -92 -4 -5
-2 -12 3 -15 6 -4 6 -18 1 -36 -5 -16 -5 -32 0 -35 5 -3 5 -19 0 -35 -5 -17
-5 -32 0 -35 5 -3 6 -15 0 -29 -4 -12 -4 -29 0 -36 5 -8 6 -18 3 -24 -8 -12
-6 -123 2 -136 3 -6 3 -10 -2 -10 -4 0 -8 -15 -7 -32 0 -18 -5 -43 -13 -55 -7
-13 -11 -23 -8 -23 3 0 -7 -14 -22 -31 -24 -27 -75 -57 -100 -60 -5 0 -13 -5
-19 -10 -6 -5 -14 -6 -17 -2 -4 3 -22 7 -40 9 -61 4 -127 50 -149 104 -15 39
-24 97 -33 215 -5 66 -14 160 -21 210 -3 22 -7 67 -9 100 -5 82 -19 242 -31
345 -2 25 -6 70 -9 100 -2 30 -7 78 -9 105 -10 88 -17 169 -20 220 -2 28 -4
50 -5 50 -1 0 -4 27 -6 60 -1 33 -6 87 -9 120 -14 124 -27 268 -31 335 -2 30
-5 55 -5 55 -3 0 -7 39 -14 135 -13 164 -19 236 -31 340 -2 25 -7 72 -10 105
-3 33 -8 86 -11 117 -3 32 -7 84 -10 115 -14 170 -41 226 -152 315 -12 10 -22
15 -22 12 0 -4 -7 -1 -15 6 -8 7 -15 9 -15 5 0 -4 -7 -2 -15 5 -27 22 -150 22
-214 0 -31 -11 -57 -25 -59 -30 -2 -6 -9 -10 -16 -10 -27 0 -113 -120 -123
-170 -11 -57 -21 -158 -38 -365 -3 -33 -7 -78 -10 -100 -2 -22 -7 -71 -10
-110 -3 -38 -8 -95 -11 -125 -3 -30 -7 -75 -9 -100 -2 -25 -6 -72 -9 -105 -4
-33 -9 -89 -11 -125 -3 -36 -7 -81 -10 -100 -2 -19 -7 -71 -11 -115 -6 -79 -7
-94 -18 -207 -13 -133 -22 -231 -31 -338 -4 -54 -16 -181 -20 -220 -2 -19 -6
-69 -10 -110 -3 -41 -8 -97 -12 -125 -3 -27 -7 -72 -8 -100 -2 -27 -4 -50 -5
-50 -1 0 -3 -22 -5 -50 -2 -27 -6 -75 -9 -105 -3 -30 -8 -86 -11 -125 -4 -38
-9 -73 -11 -77 -3 -5 0 -8 5 -8 7 0 8 -6 2 -17 -5 -10 -14 -36 -20 -58 -19
-71 -104 -136 -172 -131 -16 1 -29 -2 -29 -6 0 -4 -8 -4 -17 0 -10 5 -35 17
-56 28 -58 28 -98 91 -101 163 -2 32 -6 63 -10 70 -4 6 -4 11 1 11 4 0 8 29 8
65 0 36 -4 65 -8 65 -5 0 -5 5 -1 12 11 17 11 88 1 88 -5 0 -5 6 -1 12 10 17
11 118 1 118 -4 0 -4 8 0 18 11 21 10 73 0 90 -5 6 -5 12 0 12 4 0 8 29 8 65
0 36 -4 65 -9 65 -5 0 -4 6 0 13 11 15 11 67 1 85 -5 6 -4 12 0 12 5 0 7 26 6
58 -2 31 -3 63 -3 70 0 6 0 24 1 40 0 15 0 36 0 47 -1 11 -1 48 -1 83 0 34 0
68 0 75 0 6 1 31 3 55 2 23 -1 42 -6 42 -6 0 -6 5 0 13 10 15 10 97 0 115 -5
6 -4 12 0 12 5 0 8 19 6 43 -2 23 -3 48 -3 55 0 17 0 129 0 145 0 6 1 46 3 87
1 41 -1 81 -6 88 -5 6 -6 12 -1 12 5 0 9 29 9 65 0 36 -4 65 -9 65 -5 0 -4 6
0 13 11 15 11 67 1 85 -5 6 -4 12 0 12 5 0 7 26 6 58 -2 31 -3 63 -3 70 0 6 0
24 1 40 0 15 0 36 0 47 -1 11 -1 48 -1 83 0 34 0 68 0 75 0 6 1 31 3 55 2 23
-1 42 -6 42 -6 0 -6 5 0 13 7 10 10 87 4 107 -1 3 -4 28 -6 57 -2 29 -7 58
-11 65 -5 7 -9 18 -10 25 -3 21 -45 76 -83 111 -33 30 -81 58 -121 69 -31 9
-146 10 -175 2z"/>
<path d="M8889 10235 c-2 -2 -20 -6 -39 -9 -19 -3 -46 -8 -60 -11 -14 -3 -34
-8 -46 -10 -11 -3 -74 -23 -140 -46 -65 -22 -125 -41 -131 -41 -7 -1 -13 -5
-13 -10 0 -4 -8 -8 -18 -8 -10 0 -22 -4 -27 -8 -6 -5 -38 -19 -72 -33 -35 -13
-63 -27 -63 -31 0 -5 -6 -8 -13 -8 -12 0 -112 -51 -231 -118 -73 -42 -257
-165 -282 -189 -7 -7 -15 -13 -19 -13 -8 0 -128 -99 -137 -114 -4 -6 -8 -8 -8
-3 0 10 -59 -44 -194 -179 -123 -122 -135 -136 -221 -244 -33 -41 -62 -77 -65
-80 -9 -9 -49 -68 -116 -168 -35 -54 -67 -102 -71 -108 -9 -11 -18 -28 -95
-174 -28 -52 -55 -101 -61 -107 -5 -7 -7 -13 -3 -13 4 0 -3 -19 -15 -42 -12
-24 -22 -44 -21 -45 1 -2 -12 -32 -28 -67 -25 -55 -117 -308 -124 -341 -5 -24
-39 -151 -44 -165 -3 -8 -7 -26 -9 -40 -2 -14 -8 -38 -13 -55 -13 -45 -43
-201 -56 -294 -3 -25 -8 -57 -10 -71 -6 -32 -12 -90 -18 -160 -3 -30 -6 -55
-6 -55 -2 0 -9 -125 -13 -227 -2 -49 -6 -91 -10 -94 -3 -4 -3 -14 2 -23 5 -9
5 -25 1 -36 -4 -11 -4 -32 1 -47 4 -16 3 -30 -2 -33 -5 -4 -5 -13 0 -24 6 -10
6 -23 1 -31 -5 -8 -5 -21 0 -30 5 -9 5 -22 0 -30 -5 -8 -5 -21 0 -30 5 -9 5
-22 0 -30 -5 -8 -5 -21 0 -30 5 -9 5 -22 0 -30 -4 -7 -5 -20 -2 -29 8 -20 7
-63 -1 -84 -3 -9 -2 -19 3 -22 5 -3 5 -18 0 -35 -5 -16 -5 -32 0 -35 5 -3 5
-19 0 -35 -5 -17 -5 -32 0 -35 5 -3 6 -15 0 -29 -4 -12 -4 -29 0 -36 5 -8 5
-21 0 -30 -5 -9 -5 -22 0 -30 5 -8 5 -21 -1 -31 -5 -11 -5 -20 0 -24 6 -3 6
-17 1 -35 -5 -16 -5 -32 0 -35 5 -3 5 -19 0 -35 -5 -17 -5 -32 0 -35 5 -3 6
-15 0 -29 -4 -12 -4 -29 0 -36 5 -8 5 -21 0 -30 -5 -9 -5 -22 0 -30 5 -8 5
-21 -1 -31 -5 -11 -5 -20 0 -24 6 -3 6 -17 1 -35 -5 -16 -5 -32 0 -35 5 -3 5
-19 0 -35 -5 -17 -5 -32 0 -35 5 -3 6 -15 0 -29 -4 -12 -4 -29 0 -36 5 -8 5
-21 0 -30 -5 -9 -5 -22 0 -30 5 -8 5 -21 -1 -31 -5 -11 -5 -20 0 -24 6 -3 6
-17 1 -35 -5 -16 -5 -32 0 -35 5 -3 5 -19 0 -35 -5 -17 -5 -32 0 -35 5 -3 6
-15 0 -29 -4 -12 -4 -29 0 -36 5 -8 5 -21 0 -30 -5 -9 -5 -22 0 -30 5 -8 5
-21 -1 -31 -5 -11 -5 -20 0 -24 6 -3 6 -17 1 -35 -5 -16 -5 -32 0 -35 5 -3 5
-19 0 -35 -5 -17 -5 -32 0 -35 5 -3 6 -15 0 -29 -4 -12 -4 -29 0 -36 5 -8 5
-21 0 -30 -5 -9 -5 -22 0 -30 5 -8 5 -21 -1 -31 -5 -11 -5 -20 0 -24 6 -3 6
-17 1 -35 -5 -16 -5 -32 0 -35 5 -3 5 -19 0 -35 -5 -17 -5 -32 0 -35 5 -3 6
-15 0 -29 -4 -12 -4 -29 0 -36 5 -8 5 -21 0 -30 -5 -9 -5 -22 0 -30 4 -7 4
-23 0 -36 -5 -12 -7 -24 -4 -27 2 -2 7 -26 9 -53 11 -110 30 -200 63 -294 3
-8 6 -17 7 -20 34 -98 132 -279 184 -342 6 -7 28 -33 49 -57 47 -56 132 -138
197 -188 188 -147 457 -249 683 -258 40 -1 75 -5 78 -8 4 -3 16 -2 29 3 13 5
26 6 29 3 9 -9 115 -9 109 -1 -2 5 6 4 19 -1 14 -5 31 -5 40 0 11 6 19 5 23
-1 4 -7 12 -7 24 0 10 5 21 7 25 3 9 -9 116 -9 116 0 0 4 8 3 18 -2 11 -6 24
-6 34 0 10 6 19 6 23 0 4 -7 15 -7 30 -1 14 5 25 6 25 2 0 -4 14 -7 30 -7 17
0 30 3 30 7 0 4 13 2 29 -3 26 -9 29 -13 21 -35 -6 -14 -6 -24 0 -24 5 0 5
-12 0 -30 -5 -16 -5 -32 0 -35 5 -3 5 -19 0 -35 -5 -17 -5 -32 0 -35 5 -3 6
-15 0 -29 -4 -12 -4 -29 0 -36 5 -8 5 -21 0 -30 -5 -9 -5 -22 0 -30 5 -8 5
-21 -1 -31 -5 -11 -5 -20 0 -24 6 -3 6 -17 1 -35 -5 -16 -5 -32 0 -35 5 -3 5
-19 0 -35 -5 -17 -5 -32 0 -35 5 -3 6 -15 0 -29 -4 -12 -4 -29 0 -36 5 -8 5
-21 0 -30 -5 -9 -5 -22 0 -30 5 -8 5 -21 -1 -31 -5 -11 -5 -20 0 -24 6 -3 6
-17 1 -35 -5 -16 -5 -32 0 -35 5 -3 5 -19 0 -35 -5 -17 -5 -32 0 -35 5 -3 6
-15 0 -29 -4 -12 -4 -29 0 -36 5 -8 5 -21 0 -30 -5 -9 -5 -22 0 -30 5 -8 5
-21 -1 -31 -5 -11 -5 -20 0 -24 6 -3 6 -17 1 -35 -5 -16 -5 -32 0 -35 5 -3 5
-19 0 -35 -5 -17 -5 -32 0 -35 5 -3 6 -15 0 -29 -4 -12 -4 -29 0 -36 5 -8 6
-18 3 -23 -8 -13 -9 -97 -1 -97 4 0 3 -13 -2 -30 -5 -17 -5 -30 0 -30 5 0 5
-13 0 -29 -4 -15 -4 -34 0 -42 5 -7 5 -20 0 -29 -5 -9 -5 -22 0 -30 5 -8 5
-21 0 -30 -5 -9 -5 -22 0 -30 5 -8 5 -21 0 -30 -5 -9 -5 -22 0 -30 5 -8 5 -21
0 -30 -5 -9 -5 -22 0 -30 5 -8 5 -21 0 -30 -5 -9 -5 -22 0 -30 5 -8 5 -21 0
-30 -5 -9 -5 -22 0 -30 5 -8 5 -21 0 -30 -5 -9 -5 -22 0 -30 5 -8 5 -21 0 -30
-5 -9 -5 -22 0 -30 5 -8 5 -21 0 -30 -5 -9 -5 -22 0 -30 5 -8 5 -21 0 -30 -5
-9 -5 -22 0 -30 5 -8 5 -21 0 -30 -5 -9 -5 -22 0 -30 5 -8 5 -21 0 -30 -5 -9
-5 -22 0 -30 5 -8 5 -21 0 -30 -5 -9 -5 -22 0 -30 5 -8 5 -21 0 -30 -5 -9 -5
-22 0 -30 5 -8 5 -21 0 -30 -5 -9 -5 -22 0 -30 4 -7 6 -18 4 -24 -7 -17 -10
-106 -4 -106 3 0 5 -33 4 -72 -1 -40 5 -98 13 -128 7 -30 15 -60 16 -66 2 -7
20 -46 41 -88 26 -54 58 -98 109 -149 64 -64 177 -148 177 -130 0 3 9 -2 21
-13 12 -10 23 -18 25 -16 2 2 21 -2 42 -8 69 -21 97 -24 192 -24 99 0 155 6
167 17 3 4 14 7 24 7 9 0 54 19 100 42 100 50 220 164 263 249 15 30 31 61 36
69 5 8 17 42 27 75 17 58 18 228 18 4640 0 3894 -2 4660 -15 4660 -1 0 -3 8
-5 17 -6 32 -85 188 -95 188 -6 0 -10 6 -10 13 0 17 -94 107 -157 151 -29 20
-55 36 -57 36 -2 0 -21 8 -42 17 -22 9 -42 18 -46 19 -5 1 -9 2 -10 4 -2 1
-10 3 -18 5 -8 2 -28 6 -45 10 -33 8 -201 16 -206 10z"/>
</g>
</svg>
